<svg width="32" height="28" viewBox="0 0 32 28" fill="none" xmlns="http://www.w3.org/2000/svg">
<path d="M6.52447 15.4635C6.67415 15.0029 7.32585 15.0029 7.47553 15.4635L8.45934 18.4914C8.52628 18.6974 8.71826 18.8369 8.93487 18.8369H12.1186C12.6029 18.8369 12.8043 19.4567 12.4124 19.7414L9.83679 21.6127C9.66155 21.74 9.58822 21.9657 9.65516 22.1717L10.639 25.1996C10.7886 25.6602 10.2614 26.0433 9.86955 25.7586L7.29389 23.8873C7.11865 23.76 6.88135 23.76 6.70611 23.8873L4.13045 25.7586C3.73859 26.0433 3.21136 25.6602 3.36103 25.1996L4.34484 22.1717C4.41178 21.9657 4.33845 21.74 4.16321 21.6127L1.58755 19.7414C1.1957 19.4567 1.39708 18.8369 1.88145 18.8369H5.06513C5.28174 18.8369 5.47372 18.6974 5.54066 18.4914L6.52447 15.4635Z" fill="#D3245C"/>
<path d="M23.669 15.4634C23.8187 15.0028 24.4704 15.0028 24.6201 15.4634L25.6039 18.4913C25.6708 18.6973 25.8628 18.8368 26.0794 18.8368H29.2631C29.7474 18.8368 29.9488 19.4566 29.557 19.7413L26.9813 21.6126C26.8061 21.7399 26.7328 21.9656 26.7997 22.1716L27.7835 25.1995C27.9332 25.6602 27.4059 26.0432 27.0141 25.7585L24.4384 23.8872C24.2632 23.7599 24.0259 23.7599 23.8506 23.8872L21.275 25.7585C20.8831 26.0432 20.3559 25.6602 20.5056 25.1995L21.4894 22.1716C21.5563 21.9656 21.483 21.7399 21.3077 21.6126L18.7321 19.7413C18.3402 19.4566 18.5416 18.8368 19.026 18.8368H22.2097C22.4263 18.8368 22.6183 18.6973 22.6852 18.4913L23.669 15.4634Z" fill="#D3245C"/>
<path d="M15.0967 1.46352C15.2464 1.00287 15.8981 1.00287 16.0478 1.46353L17.0316 4.49139C17.0985 4.6974 17.2905 4.83688 17.5071 4.83688H20.6908C21.1752 4.83688 21.3766 5.45669 20.9847 5.74139L18.4091 7.61271C18.2338 7.74003 18.1605 7.96572 18.2274 8.17173L19.2112 11.1996C19.3609 11.6602 18.8337 12.0433 18.4418 11.7586L15.8662 9.88729C15.6909 9.75997 15.4536 9.75997 15.2784 9.88729L12.7027 11.7586C12.3109 12.0433 11.7836 11.6602 11.9333 11.1996L12.9171 8.17173C12.984 7.96572 12.9107 7.74003 12.7355 7.61271L10.1598 5.74139C9.76796 5.45669 9.96935 4.83688 10.4537 4.83688H13.6374C13.854 4.83688 14.046 4.6974 14.1129 4.49139L15.0967 1.46352Z" fill="#D3245C"/>
</svg>
