<svg width="32" height="28" viewBox="0 0 32 28" fill="none" xmlns="http://www.w3.org/2000/svg">
<path d="M6.52447 15.4635C6.67415 15.0029 7.32585 15.0029 7.47553 15.4635L8.45934 18.4914C8.52628 18.6974 8.71826 18.8369 8.93487 18.8369H12.1186C12.6029 18.8369 12.8043 19.4567 12.4124 19.7414L9.83679 21.6127C9.66155 21.74 9.58822 21.9657 9.65516 22.1717L10.639 25.1996C10.7886 25.6602 10.2614 26.0433 9.86955 25.7586L7.29389 23.8873C7.11865 23.76 6.88135 23.76 6.70611 23.8873L4.13045 25.7586C3.73859 26.0433 3.21136 25.6602 3.36103 25.1996L4.34484 22.1717C4.41178 21.9657 4.33845 21.74 4.16321 21.6127L1.58755 19.7414C1.1957 19.4567 1.39708 18.8369 1.88145 18.8369H5.06513C5.28174 18.8369 5.47372 18.6974 5.54066 18.4914L6.52447 15.4635Z" fill="#D3245C"/>
<path d="M23.669 15.4635C23.8187 15.0029 24.4704 15.0029 24.6201 15.4635L25.6039 18.4914C25.6708 18.6974 25.8628 18.8369 26.0794 18.8369H29.2631C29.7474 18.8369 29.9488 19.4567 29.557 19.7414L26.9813 21.6127C26.8061 21.74 26.7327 21.9657 26.7997 22.1717L27.7835 25.1996C27.9332 25.6602 27.4059 26.0433 27.0141 25.7586L24.4384 23.8873C24.2632 23.76 24.0259 23.76 23.8506 23.8873L21.275 25.7586C20.8831 26.0433 20.3559 25.6602 20.5056 25.1996L21.4894 22.1717C21.5563 21.9657 21.483 21.74 21.3077 21.6127L18.7321 19.7414C18.3402 19.4567 18.5416 18.8369 19.026 18.8369H22.2097C22.4263 18.8369 22.6183 18.6974 22.6852 18.4914L23.669 15.4635Z" fill="#D3245C"/>
<path d="M6.52447 1.46352C6.67415 1.00287 7.32585 1.00287 7.47553 1.46353L8.45934 4.49139C8.52628 4.6974 8.71826 4.83688 8.93487 4.83688H12.1186C12.6029 4.83688 12.8043 5.45669 12.4124 5.74139L9.83679 7.61271C9.66155 7.74003 9.58822 7.96572 9.65516 8.17173L10.639 11.1996C10.7886 11.6602 10.2614 12.0433 9.86955 11.7586L7.29389 9.88729C7.11865 9.75997 6.88135 9.75997 6.70611 9.88729L4.13045 11.7586C3.73859 12.0433 3.21136 11.6602 3.36103 11.1996L4.34484 8.17173C4.41178 7.96572 4.33845 7.74003 4.16321 7.61271L1.58755 5.74139C1.1957 5.45669 1.39708 4.83688 1.88145 4.83688H5.06513C5.28174 4.83688 5.47372 4.6974 5.54066 4.49139L6.52447 1.46352Z" fill="#D3245C"/>
<path d="M23.669 1.46352C23.8187 1.00287 24.4704 1.00287 24.6201 1.46353L25.6039 4.49139C25.6708 4.6974 25.8628 4.83688 26.0794 4.83688H29.2631C29.7474 4.83688 29.9488 5.45669 29.557 5.74139L26.9813 7.61271C26.8061 7.74003 26.7327 7.96572 26.7997 8.17173L27.7835 11.1996C27.9332 11.6602 27.4059 12.0433 27.0141 11.7586L24.4384 9.88729C24.2632 9.75997 24.0259 9.75997 23.8506 9.88729L21.275 11.7586C20.8831 12.0433 20.3559 11.6602 20.5056 11.1996L21.4894 8.17173C21.5563 7.96572 21.483 7.74003 21.3077 7.61271L18.7321 5.74139C18.3402 5.45669 18.5416 4.83688 19.026 4.83688H22.2097C22.4263 4.83688 22.6183 4.6974 22.6852 4.49139L23.669 1.46352Z" fill="#D3245C"/>
</svg>
