<svg width="49" height="28" viewBox="0 0 49 28" fill="none" xmlns="http://www.w3.org/2000/svg">
<path d="M15.0958 1.46352C15.2454 1.00287 15.8971 1.00287 16.0468 1.46353L17.0306 4.49139C17.0976 4.6974 17.2895 4.83688 17.5062 4.83688H20.6898C21.1742 4.83688 21.3756 5.45669 20.9837 5.74139L18.4081 7.61271C18.2328 7.74003 18.1595 7.96572 18.2264 8.17173L19.2103 11.1996C19.3599 11.6602 18.8327 12.0433 18.4408 11.7586L15.8652 9.88729C15.6899 9.75997 15.4526 9.75997 15.2774 9.88729L12.7017 11.7586C12.3099 12.0433 11.7826 11.6602 11.9323 11.1996L12.9161 8.17173C12.9831 7.96572 12.9097 7.74003 12.7345 7.61271L10.1588 5.74139C9.76698 5.45669 9.96837 4.83688 10.4527 4.83688H13.6364C13.853 4.83688 14.045 4.6974 14.1119 4.49139L15.0958 1.46352Z" fill="#FFFFFF"/>
<path d="M32.2383 1.46352C32.388 1.00287 33.0397 1.00287 33.1894 1.46353L34.1732 4.49139C34.2401 4.6974 34.4321 4.83688 34.6487 4.83688H37.8324C38.3168 4.83688 38.5182 5.45669 38.1263 5.74139L35.5507 7.61271C35.3754 7.74003 35.3021 7.96572 35.369 8.17173L36.3528 11.1996C36.5025 11.6602 35.9753 12.0433 35.5834 11.7586L33.0078 9.88729C32.8325 9.75997 32.5952 9.75997 32.42 9.88729L29.8443 11.7586C29.4525 12.0433 28.9252 11.6602 29.0749 11.1996L30.0587 8.17173C30.1256 7.96572 30.0523 7.74003 29.8771 7.61271L27.3014 5.74139C26.9096 5.45669 27.111 4.83688 27.5953 4.83688H30.779C30.9956 4.83688 31.1876 4.6974 31.2545 4.49139L32.2383 1.46352Z" fill="#FFFFFF"/>
<path d="M6.52447 15.4635C6.67415 15.0029 7.32585 15.0029 7.47553 15.4635L8.45934 18.4914C8.52628 18.6974 8.71826 18.8369 8.93487 18.8369H12.1186C12.6029 18.8369 12.8043 19.4567 12.4124 19.7414L9.83679 21.6127C9.66155 21.74 9.58822 21.9657 9.65516 22.1717L10.639 25.1996C10.7886 25.6602 10.2614 26.0433 9.86955 25.7586L7.29389 23.8873C7.11865 23.76 6.88135 23.76 6.70611 23.8873L4.13045 25.7586C3.73859 26.0433 3.21136 25.6602 3.36103 25.1996L4.34484 22.1717C4.41178 21.9657 4.33845 21.74 4.16321 21.6127L1.58755 19.7414C1.1957 19.4567 1.39708 18.8369 1.88145 18.8369H5.06513C5.28174 18.8369 5.47372 18.6974 5.54066 18.4914L6.52447 15.4635Z" fill="#FFFFFF"/>
<path d="M23.6671 15.4635C23.8167 15.0029 24.4684 15.0029 24.6181 15.4635L25.6019 18.4914C25.6689 18.6974 25.8608 18.8369 26.0774 18.8369H29.2611C29.7455 18.8369 29.9469 19.4567 29.555 19.7414L26.9794 21.6127C26.8041 21.74 26.7308 21.9657 26.7977 22.1717L27.7815 25.1996C27.9312 25.6602 27.404 26.0433 27.0121 25.7586L24.4365 23.8873C24.2612 23.76 24.0239 23.76 23.8487 23.8873L21.273 25.7586C20.8812 26.0433 20.3539 25.6602 20.5036 25.1996L21.4874 22.1717C21.5544 21.9657 21.481 21.74 21.3058 21.6127L18.7301 19.7414C18.3383 19.4567 18.5397 18.8369 19.024 18.8369H22.2077C22.4243 18.8369 22.6163 18.6974 22.6832 18.4914L23.6671 15.4635Z" fill="#FFFFFF"/>
<path d="M40.8101 15.4635C40.9598 15.0029 41.6115 15.0029 41.7612 15.4635L42.745 18.4914C42.8119 18.6974 43.0039 18.8369 43.2205 18.8369H46.4042C46.8886 18.8369 47.0899 19.4567 46.6981 19.7414L44.1224 21.6127C43.9472 21.74 43.8739 21.9657 43.9408 22.1717L44.9246 25.1996C45.0743 25.6602 44.547 26.0433 44.1552 25.7586L41.5795 23.8873C41.4043 23.76 41.167 23.76 40.9918 23.8873L38.4161 25.7586C38.0242 26.0433 37.497 25.6602 37.6467 25.1996L38.6305 22.1717C38.6974 21.9657 38.6241 21.74 38.4489 21.6127L35.8732 19.7414C35.4813 19.4567 35.6827 18.8369 36.1671 18.8369H39.3508C39.5674 18.8369 39.7594 18.6974 39.8263 18.4914L40.8101 15.4635Z" fill="#FFFFFF"/>
</svg>
