<svg width="24" height="24" viewBox="0 0 24 24" fill="none" xmlns="http://www.w3.org/2000/svg">
<rect width="24" height="24" rx="3" fill="#D3245C"/>
<path d="M13.8566 17.401C14.1027 17.401 14.3387 17.3061 14.5128 17.1373C14.6868 16.9685 14.7845 16.7396 14.7845 16.5008L14.7845 6.06792L16.9095 8.1383C17.0842 8.3078 17.3212 8.40303 17.5683 8.40303C17.8154 8.40303 18.0524 8.3078 18.2271 8.1383C18.4018 7.9688 18.5 7.7389 18.5 7.49918C18.5 7.25947 18.4018 7.02957 18.2271 6.86007L14.5154 3.25941C14.385 3.13451 14.2193 3.0499 14.0392 3.01626C13.8592 2.98261 13.673 3.00145 13.504 3.07038C13.3346 3.13791 13.1895 3.25259 13.0871 3.39996C12.9847 3.54734 12.9296 3.72082 12.9287 3.89853L12.9287 16.5008C12.9287 16.7396 13.0265 16.9685 13.2005 17.1373C13.3745 17.3061 13.6105 17.401 13.8566 17.401ZM10.4976 20.9296C10.667 20.8621 10.8121 20.7474 10.9145 20.6C11.0168 20.4527 11.072 20.2792 11.0729 20.1015L11.0729 7.49918C11.0729 7.26045 10.9751 7.03149 10.8011 6.86267C10.6271 6.69386 10.3911 6.59902 10.145 6.59902C9.89886 6.59902 9.66284 6.69386 9.48882 6.86267C9.31481 7.03149 9.21704 7.26045 9.21704 7.49918L9.21704 17.9321L7.09212 15.8617C7.00585 15.7773 6.90323 15.7104 6.79015 15.6647C6.67708 15.619 6.55579 15.5954 6.4333 15.5954C6.3108 15.5954 6.18952 15.619 6.07644 15.6647C5.96337 15.7104 5.86074 15.7773 5.77448 15.8617C5.6875 15.9454 5.61847 16.0449 5.57136 16.1546C5.52425 16.2643 5.5 16.382 5.5 16.5008C5.5 16.6196 5.52425 16.7373 5.57136 16.847C5.61847 16.9567 5.6875 17.0562 5.77448 17.1399L9.48614 20.7406C9.61662 20.8655 9.78233 20.9501 9.96233 20.9837C10.1423 21.0174 10.3286 20.9986 10.4976 20.9296Z" fill="white"/>
</svg>
