<svg width="16" height="16" viewBox="0 0 16 16" fill="none" xmlns="http://www.w3.org/2000/svg">
<path d="M8 3.31037C7.38516 3.31037 6.78412 3.48834 6.2729 3.82178C5.76168 4.15521 5.36323 4.62914 5.12794 5.18362C4.89265 5.73811 4.83109 6.34824 4.95104 6.93688C5.07099 7.52552 5.36706 8.06622 5.80182 8.4906C6.23658 8.91498 6.7905 9.20399 7.39352 9.32108C7.99655 9.43817 8.62161 9.37807 9.18965 9.1484C9.75769 8.91872 10.2432 8.52978 10.5848 8.03076C10.9264 7.53174 11.1087 6.94505 11.1087 6.34488C11.1078 5.54036 10.7799 4.76905 10.1971 4.20017C9.61436 3.63128 8.82419 3.31128 8 3.31037ZM8 7.7242C7.72053 7.7242 7.44733 7.6433 7.21496 7.49174C6.98258 7.34018 6.80147 7.12476 6.69452 6.87272C6.58757 6.62068 6.55959 6.34335 6.61411 6.07579C6.66863 5.80822 6.80321 5.56245 7.00083 5.36955C7.19844 5.17665 7.45022 5.04528 7.72433 4.99206C7.99843 4.93884 8.28255 4.96615 8.54075 5.07055C8.79895 5.17495 9.01964 5.35174 9.1749 5.57857C9.33017 5.8054 9.41304 6.07207 9.41304 6.34488C9.41304 6.7107 9.26417 7.06153 8.99917 7.32021C8.73418 7.57888 8.37476 7.7242 8 7.7242ZM8 0C6.27667 0.00182551 4.62445 0.670888 3.40587 1.86039C2.18729 3.04989 1.50187 4.66267 1.5 6.34488C1.5 11.6801 7.26804 15.6829 7.51391 15.8505C7.6564 15.9478 7.8261 16 8 16C8.1739 16 8.3436 15.9478 8.48609 15.8505C9.57856 15.0646 10.5781 14.1625 11.4662 13.1608C13.4508 10.936 14.5 8.57731 14.5 6.34488C14.4981 4.66267 13.8127 3.04989 12.5941 1.86039C11.3755 0.670888 9.72333 0.00182551 8 0ZM10.2114 12.0491C9.53777 12.8044 8.79782 13.5008 8 14.1305C7.20218 13.5008 6.46223 12.8044 5.78859 12.0491C4.6087 10.7153 3.19565 8.64214 3.19565 6.34488C3.19565 5.10109 3.70182 3.90825 4.60281 3.02877C5.5038 2.14928 6.72581 1.65519 8 1.65519C9.27419 1.65519 10.4962 2.14928 11.3972 3.02877C12.2982 3.90825 12.8043 5.10109 12.8043 6.34488C12.8043 8.64214 11.3913 10.7153 10.2114 12.0491Z" fill="#636363"/>
</svg>
