<svg width="12" height="12" viewBox="0 0 12 12" fill="none" xmlns="http://www.w3.org/2000/svg">
<path fill-rule="evenodd" clip-rule="evenodd" d="M6 0C2.6862 0 0 2.6862 0 6C0 9.3138 2.6862 12 6 12C9.3138 12 12 9.3138 12 6C12 2.6862 9.3138 0 6 0ZM1.2 6C1.2 7.27304 1.70571 8.49394 2.60589 9.39411C3.50606 10.2943 4.72696 10.8 6 10.8C7.27304 10.8 8.49394 10.2943 9.39411 9.39411C10.2943 8.49394 10.8 7.27304 10.8 6C10.8 4.72696 10.2943 3.50606 9.39411 2.60589C8.49394 1.70571 7.27304 1.2 6 1.2C4.72696 1.2 3.50606 1.70571 2.60589 2.60589C1.70571 3.50606 1.2 4.72696 1.2 6Z" fill="#F03A36"/>
<path d="M5.9999 2.39994C6.15903 2.39994 6.31164 2.46315 6.42417 2.57568C6.53669 2.6882 6.5999 2.84081 6.5999 2.99994V6.59994C6.5999 6.75907 6.53669 6.91168 6.42417 7.0242C6.31164 7.13673 6.15903 7.19994 5.9999 7.19994C5.84077 7.19994 5.68816 7.13673 5.57564 7.0242C5.46312 6.91168 5.3999 6.75907 5.3999 6.59994V2.99994C5.3999 2.84081 5.46312 2.6882 5.57564 2.57568C5.68816 2.46315 5.84077 2.39994 5.9999 2.39994ZM5.9999 8.39994C5.84077 8.39994 5.68816 8.46315 5.57564 8.57568C5.46312 8.6882 5.3999 8.84081 5.3999 8.99994C5.3999 9.15907 5.46312 9.31168 5.57564 9.4242C5.68816 9.53673 5.84077 9.59994 5.9999 9.59994C6.15903 9.59994 6.31164 9.53673 6.42417 9.4242C6.53669 9.31168 6.5999 9.15907 6.5999 8.99994C6.5999 8.84081 6.53669 8.6882 6.42417 8.57568C6.31164 8.46315 6.15903 8.39994 5.9999 8.39994Z" fill="#F03A36"/>
</svg>
