<svg width="16" height="16" viewBox="0 0 16 16" fill="none" xmlns="http://www.w3.org/2000/svg">
<path fill-rule="evenodd" clip-rule="evenodd" d="M3.40587 1.86039C4.62445 0.670888 6.27667 0.00182551 8 0C9.72333 0.00182551 11.3755 0.670888 12.5941 1.86039C13.8127 3.04989 14.4981 4.66267 14.5 6.34488C14.5 8.57731 13.4508 10.936 11.4662 13.1608C10.5781 14.1625 9.57856 15.0646 8.48609 15.8505C8.3436 15.9478 8.1739 16 8 16C7.8261 16 7.6564 15.9478 7.51391 15.8505C7.26804 15.6829 1.5 11.6801 1.5 6.34488C1.50187 4.66267 2.18729 3.04989 3.40587 1.86039ZM7.98905 9.33331C9.68641 9.33331 11.0624 7.99017 11.0624 6.33331C11.0624 4.67646 9.68641 3.33331 7.98905 3.33331C6.29169 3.33331 4.91571 4.67646 4.91571 6.33331C4.91571 7.99017 6.29169 9.33331 7.98905 9.33331Z" fill="#636363"/>
</svg>
