<svg width="16" height="16" viewBox="0 0 16 16" fill="none" xmlns="http://www.w3.org/2000/svg">
<path d="M7.99968 1.5C8.68308 1.49924 9.28067 1.74857 9.76555 2.23345C10.2505 2.71838 10.5 3.31621 10.5 4L8.00019 6.5C7.31685 6.50073 6.7193 6.2514 6.23445 5.76655C5.74956 5.28167 5.50005 4.6839 5.5 4.00019M7.99968 1.5C7.99979 1.5 7.99989 1.5 8 1.5V2L7.99939 1.5C7.99949 1.5 7.99959 1.5 7.99968 1.5ZM7.99968 1.5C7.31603 1.50008 6.7183 1.74959 6.23345 2.23445C5.7486 2.7193 5.49927 3.31685 5.5 4.00019M5.5 4.00019C5.5 4.00013 5.5 4.00006 5.5 4H6L5.5 4.00061C5.5 4.00047 5.5 4.00033 5.5 4.00019ZM7.9997 9.5H8C9.06039 9.5 10.1042 9.62463 11.1322 9.87392C12.1593 10.123 13.1729 10.4964 14.1733 10.9957C14.5723 11.2027 14.8919 11.5009 15.137 11.8997C15.3798 12.2949 15.5006 12.7246 15.5 13.1994V13.2V15.5H0.5V13.2C0.5 12.7242 0.621197 12.294 0.864034 11.8987C1.10914 11.4997 1.4285 11.202 1.82671 10.9957C2.82711 10.4957 3.8407 10.122 4.86783 9.87292C5.89574 9.62365 6.93941 9.49936 7.9997 9.5ZM1.5 14V14.5L2 13.2H1.5V13.2008V14ZM8 7.5C7.03366 7.5 6.21887 7.16176 5.52855 6.47145C4.83824 5.78113 4.5 4.96634 4.5 4C4.5 3.03366 4.83824 2.21887 5.52855 1.52855C6.21887 0.83824 7.03366 0.5 8 0.5C8.96634 0.5 9.78113 0.83824 10.4714 1.52855C11.1618 2.21887 11.5 3.03366 11.5 4C11.5 4.96634 11.1618 5.78113 10.4714 6.47145C9.78113 7.16176 8.96634 7.5 8 7.5Z" fill="#636363" stroke="#636363"/>
</svg>
