<svg width="16" height="16" viewBox="0 0 16 16" fill="none" xmlns="http://www.w3.org/2000/svg">
<path d="M2.16667 16H13.8333C14.7525 16 15.5 15.2824 15.5 14.4V3.2C15.5 2.3176 14.7525 1.6 13.8333 1.6H12.1667V0H10.5V1.6H5.5V0H3.83333V1.6H2.16667C1.2475 1.6 0.5 2.3176 0.5 3.2V14.4C0.5 15.2824 1.2475 16 2.16667 16ZM13.8333 4.8L13.8342 14.4H2.16667V4.8H13.8333Z" fill="#636363"/>
<path d="M3.49059 7.20001H5.23604V8.80001H3.49059V7.20001ZM3.49059 10.4H5.23604V12H3.49059V10.4ZM6.9815 7.20001H8.72695V8.80001H6.9815V7.20001ZM6.9815 10.4H8.72695V12H6.9815V10.4ZM10.4724 7.20001H12.2179V8.80001H10.4724V7.20001ZM10.4724 10.4H12.2179V12H10.4724V10.4Z" fill="#636363"/>
</svg>
